<svg width="270" height="270" viewBox="0 0 270 270" fill="none" xmlns="http://www.w3.org/2000/svg">
<g clip-path="url(#clip0_35_2)">
<path d="M129.382 3.81812L3.81838 129.382C1.70955 131.49 1.70955 134.91 3.81838 137.018L132.981 266.181C135.09 268.29 138.509 268.29 140.618 266.181L266.182 140.618C268.29 138.509 268.29 135.09 266.182 132.981L137.019 3.81813C134.91 1.7093 131.491 1.7093 129.382 3.81812Z" fill="#475BA2"/>
<path d="M24.3 110.693C24.3 105.478 25.2962 100.585 27.2882 96.0152C29.2805 91.4449 31.9758 87.4606 35.3742 84.062C38.8313 80.6051 42.8449 77.8804 47.4153 75.8882C51.9855 73.8961 56.8781 72.9 62.093 72.9H119.925V98.1245H62.093C60.3351 98.1245 58.6946 98.4469 57.1711 99.0913C55.6476 99.7358 54.2999 100.644 53.1281 101.816C52.0148 102.929 51.1359 104.248 50.4915 105.771C49.8469 107.294 49.5245 108.935 49.5245 110.693C49.5245 112.451 49.8469 114.121 50.4915 115.703C51.1359 117.226 52.0148 118.574 53.1281 119.746C54.2999 120.859 55.6476 121.738 57.1711 122.382C58.6946 123.027 60.3351 123.349 62.093 123.349H87.3175C92.5325 123.349 97.425 124.345 101.995 126.337C106.624 128.271 110.638 130.966 114.036 134.423C117.493 137.822 120.189 141.836 122.122 146.464C124.115 151.035 125.11 155.927 125.11 161.142C125.11 166.357 124.115 171.249 122.122 175.82C120.189 180.39 117.493 184.404 114.036 187.862C110.638 191.26 106.624 193.955 101.995 195.947C97.425 197.94 92.5325 198.935 87.3175 198.935H31.3312V173.71H87.3175C89.0754 173.71 90.7161 173.388 92.2394 172.744C93.7629 172.099 95.0813 171.22 96.1946 170.107C97.3664 168.935 98.2746 167.587 98.9192 166.064C99.5636 164.541 99.886 162.9 99.886 161.142C99.886 159.384 99.5636 157.744 98.9192 156.22C98.2746 154.697 97.3664 153.379 96.1946 152.265C95.0813 151.093 93.7629 150.185 92.2394 149.541C90.7161 148.896 89.0754 148.574 87.3175 148.574H62.093C56.8781 148.574 51.9855 147.578 47.4153 145.585C42.8449 143.593 38.8313 140.898 35.3742 137.499C31.9758 134.043 29.2805 130.029 27.2882 125.459C25.2962 120.83 24.3 115.908 24.3 110.693Z" fill="#FFD97A"/>
<path d="M27.2882 96.0152L22.3381 93.8574L27.2882 96.0152ZM35.3742 84.062L31.5559 80.2436L35.3742 84.062ZM119.925 72.9H125.325V67.5H119.925V72.9ZM119.925 98.1245V103.524H125.325V98.1245H119.925ZM50.4915 115.703L45.4906 117.74L45.5041 117.773L45.5183 117.807L50.4915 115.703ZM53.1281 119.746L49.2131 123.465L49.3085 123.565L49.409 123.661L53.1281 119.746ZM101.995 126.337L99.8376 131.288L99.8756 131.304L99.9139 131.32L101.995 126.337ZM114.036 134.423L110.185 138.209L110.218 138.242L110.251 138.274L114.036 134.423ZM122.122 146.464L117.14 148.546L117.156 148.584L117.172 148.622L122.122 146.464ZM122.122 175.82L117.172 173.662L117.16 173.689L117.149 173.716L122.122 175.82ZM114.036 187.861L117.855 191.679L114.036 187.861ZM101.995 195.947L99.8606 190.986L99.8376 190.997L101.995 195.947ZM31.3312 198.935H25.9312V204.335H31.3312V198.935ZM31.3312 173.71V168.31H25.9312V173.71H31.3312ZM96.1946 170.107L92.3762 166.289L96.1946 170.107ZM96.1946 152.265L92.2796 155.984L92.375 156.085L92.4752 156.18L96.1946 152.265ZM35.3742 137.499L31.5233 141.285L31.5557 141.318L31.5886 141.35L35.3742 137.499ZM27.2882 125.459L22.3282 127.593L22.3381 127.616L27.2882 125.459ZM29.7001 110.693C29.7001 106.186 30.5565 102.031 32.2384 98.1729L22.3381 93.8574C20.0357 99.1397 18.9 104.77 18.9 110.693H29.7001ZM32.2384 98.1729C33.9709 94.1985 36.2899 90.7832 39.1925 87.8805L31.5559 80.2436C27.6617 84.1378 24.59 88.6912 22.3381 93.8574L32.2384 98.1729ZM39.1925 87.8805C42.1622 84.9109 45.6097 82.566 49.573 80.8384L45.2575 70.938C40.0803 73.1948 35.5004 76.2993 31.5559 80.2436L39.1925 87.8805ZM49.573 80.8384C53.4314 79.1564 57.5858 78.3 62.093 78.3V67.5C56.1705 67.5 50.5397 68.6356 45.2575 70.938L49.573 80.8384ZM62.093 78.3H119.925V67.5H62.093V78.3ZM114.525 72.9V98.1245H125.325V72.9H114.525ZM119.925 92.7245H62.093V103.524H119.925V92.7245ZM62.093 92.7245C59.6584 92.7245 57.2973 93.1747 55.0671 94.118L59.2751 104.065C60.0918 103.719 61.0121 103.524 62.093 103.524V92.7245ZM55.0671 94.118C52.9019 95.0342 50.9725 96.3349 49.3098 97.9976L56.9465 105.634C57.6276 104.953 58.3935 104.438 59.2751 104.065L55.0671 94.118ZM49.3098 97.9976C47.6801 99.6273 46.4197 101.536 45.5183 103.667L55.4647 107.875C55.8521 106.959 56.3496 106.231 56.9465 105.634L49.3098 97.9976ZM45.5183 103.667C44.5747 105.897 44.1245 108.258 44.1245 110.693H54.9245C54.9245 109.612 55.1191 108.692 55.4647 107.875L45.5183 103.667ZM44.1245 110.693C44.1245 113.129 44.5747 115.492 45.4906 117.74L55.4923 113.665C55.1191 112.749 54.9245 111.773 54.9245 110.693H44.1245ZM45.5183 117.807C46.4095 119.913 47.6425 121.812 49.2131 123.465L57.0431 116.026C56.3872 115.336 55.8623 114.539 55.4647 113.599L45.5183 117.807ZM49.409 123.661C51.0623 125.231 52.9602 126.464 55.0671 127.356L59.2751 117.409C58.3352 117.011 57.5378 116.486 56.8475 115.831L49.409 123.661ZM55.0671 127.356C57.2973 128.299 59.6584 128.749 62.093 128.749V117.949C61.0121 117.949 60.0918 117.755 59.2751 117.409L55.0671 127.356ZM62.093 128.749H87.3175V117.949H62.093V128.749ZM87.3175 128.749C91.8247 128.749 95.9791 129.606 99.8376 131.288L104.153 121.387C98.8708 119.085 93.2401 117.949 87.3175 117.949V128.749ZM99.9139 131.32C103.903 132.986 107.309 135.283 110.185 138.209L117.887 130.638C113.967 126.65 109.346 123.556 104.077 121.355L99.9139 131.32ZM110.251 138.274C113.177 141.151 115.473 144.557 117.14 148.546L127.105 144.383C124.904 139.114 121.81 134.493 117.822 130.573L110.251 138.274ZM117.172 148.622C118.854 152.481 119.711 156.635 119.711 161.142H130.511C130.511 155.22 129.375 149.589 127.073 144.307L117.172 148.622ZM119.711 161.142C119.711 165.649 118.854 169.804 117.172 173.662L127.073 177.978C129.375 172.695 130.511 167.065 130.511 161.142H119.711ZM117.149 173.716C115.482 177.655 113.176 181.084 110.218 184.042L117.855 191.679C121.811 187.723 124.895 183.126 127.096 177.924L117.149 173.716ZM110.218 184.042C107.327 186.934 103.892 189.251 99.8606 190.986L104.13 200.906C109.357 198.658 113.949 195.585 117.855 191.679L110.218 184.042ZM99.8376 190.997C95.9791 192.678 91.8247 193.535 87.3175 193.535V204.335C93.2401 204.335 98.8708 203.199 104.153 200.897L99.8376 190.997ZM87.3175 193.535H31.3312V204.335H87.3175V193.535ZM36.7312 198.935V173.71H25.9312V198.935H36.7312ZM31.3312 179.11H87.3175V168.31H31.3312V179.11ZM87.3175 179.11C89.7524 179.11 92.1133 178.66 94.3435 177.717L90.1354 167.77C89.3188 168.116 88.3986 168.31 87.3175 168.31V179.11ZM94.3435 177.717C96.4745 176.815 98.3832 175.555 100.013 173.925L92.3762 166.289C91.7794 166.885 91.0513 167.383 90.1354 167.77L94.3435 177.717ZM100.013 173.925C101.676 172.263 102.976 170.333 103.892 168.168L93.946 163.96C93.5729 164.842 93.0572 165.608 92.3762 166.289L100.013 173.925ZM103.892 168.168C104.836 165.938 105.286 163.577 105.286 161.142H94.486C94.486 162.223 94.2914 163.143 93.946 163.96L103.892 168.168ZM105.286 161.142C105.286 158.707 104.836 156.346 103.892 154.116L93.946 158.324C94.2914 159.141 94.486 160.061 94.486 161.142H105.286ZM103.892 154.116C102.966 151.926 101.636 149.987 99.9137 148.35L92.4752 156.18C93.0964 156.77 93.5837 157.468 93.946 158.324L103.892 154.116ZM100.11 148.546C98.473 146.823 96.5339 145.494 94.3435 144.567L90.1354 154.514C90.9919 154.876 91.6895 155.363 92.2796 155.984L100.11 148.546ZM94.3435 144.567C92.1133 143.624 89.7524 143.174 87.3175 143.174V153.974C88.3986 153.974 89.3188 154.168 90.1354 154.514L94.3435 144.567ZM87.3175 143.174H62.093V153.974H87.3175V143.174ZM62.093 143.174C57.5858 143.174 53.4314 142.317 49.573 140.635L45.2575 150.536C50.5397 152.838 56.1705 153.974 62.093 153.974V143.174ZM49.573 140.635C45.5905 138.899 42.1327 136.571 39.1598 133.649L31.5886 141.35C35.5299 145.225 40.0994 148.287 45.2575 150.536L49.573 140.635ZM39.2251 133.714C36.3028 130.741 33.9745 127.283 32.2384 123.301L22.3381 127.616C24.5864 132.774 27.6488 137.344 31.5233 141.285L39.2251 133.714ZM32.2485 123.324C30.5567 119.393 29.7001 115.2 29.7001 110.693H18.9C18.9 116.616 20.0357 122.266 22.3282 127.593L32.2485 123.324Z" fill="black"/>
<path d="M244.27 135.917C244.27 141.718 243.507 147.314 241.984 152.705C240.519 158.037 238.409 163.046 235.655 167.734C232.903 172.363 229.621 176.611 225.813 180.478C222.004 184.287 217.756 187.568 213.069 190.322C208.381 193.076 203.341 195.215 197.95 196.737C192.619 198.203 187.053 198.935 181.252 198.935H143.283V72.9H181.252C187.053 72.9 192.619 73.6616 197.95 75.1851C203.341 76.6499 208.381 78.7594 213.069 81.5132C217.756 84.2672 222.004 87.5777 225.813 91.4449C229.621 95.2535 232.903 99.5015 235.655 104.189C238.409 108.818 240.519 113.828 241.984 119.218C243.507 124.55 244.27 130.117 244.27 135.917ZM219.045 135.917C219.045 130.703 218.049 125.81 216.057 121.24C214.123 116.67 211.427 112.685 207.971 109.287C204.573 105.83 200.559 103.105 195.929 101.113C191.359 99.1206 186.466 98.1245 181.252 98.1245H168.683V173.71H181.252C186.466 173.71 191.359 172.744 195.929 170.81C200.559 168.818 204.573 166.123 207.971 162.724C211.427 159.267 214.123 155.253 216.057 150.683C218.049 146.054 219.045 141.132 219.045 135.917Z" fill="#FFD97A"/>
<path d="M241.984 152.705L236.787 151.236L236.782 151.255L236.776 151.274L241.984 152.705ZM235.655 167.734L240.297 170.495L240.304 170.482L240.312 170.469L235.655 167.734ZM225.813 180.478L229.63 184.296L229.645 184.281L229.659 184.267L225.813 180.478ZM197.95 196.737L199.381 201.945L199.401 201.939L199.419 201.934L197.95 196.737ZM143.283 198.935H137.883V204.335H143.283V198.935ZM143.283 72.9V67.5H137.883V72.9H143.283ZM197.95 75.1851L196.467 80.3774L196.501 80.3869L196.536 80.3961L197.95 75.1851ZM213.069 81.5132L215.803 76.8573L213.069 81.5132ZM225.813 91.4449L221.964 95.234L221.979 95.2486L221.993 95.2632L225.813 91.4449ZM235.655 104.189L231 106.924L231.007 106.937L231.015 106.95L235.655 104.189ZM241.984 119.218L236.773 120.634L236.782 120.668L236.793 120.702L241.984 119.218ZM216.057 121.24L211.083 123.344L211.094 123.371L211.107 123.398L216.057 121.24ZM207.971 109.287L204.119 113.072L204.151 113.105L204.186 113.138L207.971 109.287ZM195.929 101.113L193.771 106.063L193.794 106.073L195.929 101.113ZM168.683 98.1245V92.7245H163.283V98.1245H168.683ZM168.683 173.71H163.283V179.11H168.683V173.71ZM195.929 170.81L198.033 175.783L198.049 175.777L198.064 175.77L195.929 170.81ZM207.971 162.724L204.151 158.906L207.971 162.724ZM216.057 150.683L211.096 148.548L211.09 148.564L211.083 148.579L216.057 150.683ZM238.87 135.917C238.87 141.24 238.171 146.34 236.787 151.236L247.18 154.173C248.844 148.288 249.67 142.197 249.67 135.917H238.87ZM236.776 151.274C235.435 156.157 233.509 160.727 231 164.999L240.312 170.469C243.31 165.366 245.604 159.916 247.191 154.135L236.776 151.274ZM231.015 164.973C228.486 169.226 225.471 173.129 221.964 176.689L229.659 184.267C233.77 180.093 237.318 175.5 240.297 170.495L231.015 164.973ZM221.993 176.66C218.512 180.141 214.629 183.142 210.333 185.665L215.803 194.977C220.882 191.994 225.494 188.432 229.63 184.296L221.993 176.66ZM210.333 185.665C206.054 188.18 201.442 190.14 196.482 191.541L199.419 201.934C205.24 200.289 210.707 197.972 215.803 194.977L210.333 185.665ZM196.521 191.53C191.677 192.862 186.592 193.535 181.252 193.535V204.335C187.512 204.335 193.56 203.543 199.381 201.945L196.521 191.53ZM181.252 193.535H143.283V204.335H181.252V193.535ZM148.683 198.935V72.9H137.883V198.935H148.683ZM143.283 78.3H181.252V67.5H143.283V78.3ZM181.252 78.3C186.574 78.3 191.64 78.998 196.467 80.3774L199.434 69.9928C193.598 68.3253 187.53 67.5 181.252 67.5V78.3ZM196.536 80.3961C201.477 81.7387 206.07 83.6647 210.333 86.1692L215.803 76.8573C210.691 73.854 205.208 71.5612 199.367 69.9741L196.536 80.3961ZM210.333 86.1692C214.613 88.6844 218.488 91.7037 221.964 95.234L229.659 87.6557C225.519 83.4518 220.897 79.85 215.803 76.8573L210.333 86.1692ZM221.993 95.2632C225.476 98.7448 228.477 102.628 231 106.924L240.312 101.454C237.327 96.3749 233.767 91.7622 229.63 87.6265L221.993 95.2632ZM231.015 106.95C233.509 111.143 235.432 115.698 236.773 120.634L247.195 117.802C245.607 111.957 243.31 106.493 240.297 101.428L231.015 106.95ZM236.793 120.702C238.171 125.53 238.87 130.595 238.87 135.917H249.67C249.67 129.638 248.844 123.571 247.177 117.735L236.793 120.702ZM224.445 135.917C224.445 129.995 223.309 124.364 221.007 119.082L211.107 123.398C212.788 127.256 213.645 131.41 213.645 135.917H224.445ZM221.03 119.136C218.825 113.926 215.733 109.345 211.756 105.436L204.186 113.138C207.123 116.026 209.42 119.412 211.083 123.344L221.03 119.136ZM211.821 105.501C207.913 101.525 203.309 98.4103 198.064 96.1528L193.794 106.073C197.806 107.8 201.232 110.134 204.119 113.072L211.821 105.501ZM198.087 96.1627C192.804 93.8601 187.174 92.7245 181.252 92.7245V103.524C185.759 103.524 189.913 104.381 193.771 106.063L198.087 96.1627ZM181.252 92.7245H168.683V103.524H181.252V92.7245ZM163.283 98.1245V173.71H174.083V98.1245H163.283ZM168.683 179.11H181.252V168.31H168.683V179.11ZM181.252 179.11C187.152 179.11 192.765 178.013 198.033 175.783L193.825 165.837C189.955 167.475 185.781 168.31 181.252 168.31V179.11ZM198.064 175.77C203.291 173.521 207.883 170.448 211.789 166.542L204.151 158.906C201.261 161.797 197.826 164.115 193.794 165.85L198.064 175.77ZM211.789 166.542C215.745 162.586 218.829 157.988 221.03 152.787L211.083 148.579C209.416 152.519 207.111 155.948 204.151 158.906L211.789 166.542ZM221.016 152.818C223.309 147.491 224.445 141.84 224.445 135.917H213.645C213.645 140.424 212.788 144.617 211.096 148.548L221.016 152.818Z" fill="black"/>
</g>
<defs>
<clipPath id="clip0_35_2">
<rect width="270" height="270" fill="white"/>
</clipPath>
</defs>
</svg>
