<svg width="53" height="53" viewBox="0 0 53 53" fill="none" xmlns="http://www.w3.org/2000/svg">
<g clip-path="url(#clip0_12_16)">
<path d="M25.3972 0.749487L0.749533 25.3971C0.335577 25.8111 0.335577 26.4822 0.749533 26.8962L26.1037 52.2504C26.5177 52.6644 27.1888 52.6644 27.6028 52.2504L52.2505 27.6028C52.6644 27.1888 52.6644 26.5176 52.2505 26.1037L26.8962 0.749486C26.4823 0.33553 25.8111 0.335531 25.3972 0.749487Z" fill="#475BA2"/>
<path d="M4.77001 21.7286C4.77001 20.7049 4.96554 19.7445 5.35658 18.8474C5.74765 17.9503 6.27673 17.1682 6.94382 16.5011C7.62243 15.8225 8.4103 15.2876 9.30744 14.8966C10.2046 14.5055 11.165 14.31 12.1886 14.31H23.5408V19.2615H12.1886C11.8436 19.2615 11.5215 19.3248 11.2225 19.4512C10.9234 19.5778 10.6589 19.7561 10.4289 19.9861C10.2103 20.2046 10.0378 20.4634 9.91129 20.7625C9.78476 21.0615 9.72148 21.3836 9.72148 21.7286C9.72148 22.0737 9.78476 22.4015 9.91129 22.712C10.0378 23.011 10.2103 23.2756 10.4289 23.5056C10.6589 23.7241 10.9234 23.8967 11.2225 24.0232C11.5215 24.1497 11.8436 24.213 12.1886 24.213H17.1401C18.1638 24.213 19.1242 24.4085 20.0213 24.7996C20.93 25.1791 21.7178 25.7082 22.3849 26.3868C23.0635 27.0539 23.5926 27.8418 23.9722 28.7504C24.3632 29.6476 24.5587 30.608 24.5587 31.6316C24.5587 32.6552 24.3632 33.6156 23.9722 34.5128C23.5926 35.4098 23.0635 36.1978 22.3849 36.8765C21.7178 37.5436 20.93 38.0725 20.0213 38.4637C19.1242 38.8548 18.1638 39.0502 17.1401 39.0502H6.1502V34.0987H17.1401C17.4852 34.0987 17.8072 34.0355 18.1063 33.9089C18.4053 33.7824 18.6641 33.6099 18.8826 33.3914C19.1127 33.1613 19.2909 32.8968 19.4175 32.5978C19.544 32.2987 19.6073 31.9767 19.6073 31.6316C19.6073 31.2865 19.544 30.9645 19.4175 30.6654C19.2909 30.3664 19.1127 30.1076 18.8826 29.8891C18.6641 29.659 18.4053 29.4808 18.1063 29.3543C17.8072 29.2277 17.4852 29.1645 17.1401 29.1645H12.1886C11.165 29.1645 10.2046 28.969 9.30744 28.5779C8.4103 28.1868 7.62243 27.6578 6.94382 26.9906C6.27673 26.3121 5.74765 25.5242 5.35658 24.6271C4.96554 23.7184 4.77001 22.7523 4.77001 21.7286Z" fill="url(#paint0_linear_12_16)"/>
<path d="M5.35657 18.8474L4.38487 18.4239L5.35657 18.8474ZM6.94382 16.5011L6.19429 15.7515L6.94382 16.5011ZM23.5408 14.31H24.6008V13.25H23.5408V14.31ZM23.5408 19.2615V20.3215H24.6008V19.2615H23.5408ZM9.91129 22.712L8.92962 23.112L8.93227 23.1185L8.93506 23.125L9.91129 22.712ZM10.4289 23.5056L9.66035 24.2357L9.67908 24.2554L9.69879 24.2741L10.4289 23.5056ZM20.0213 24.7996L19.5977 25.7713L19.6052 25.7745L19.6127 25.7777L20.0213 24.7996ZM22.3849 26.3868L21.629 27.1299L21.6353 27.1364L21.6418 27.1427L22.3849 26.3868ZM23.9722 28.7504L22.9941 29.159L22.9972 29.1665L23.0005 29.174L23.9722 28.7504ZM23.9722 34.5128L23.0005 34.0892L22.9982 34.0945L22.9959 34.0998L23.9722 34.5128ZM22.3849 36.8765L23.1344 37.6259L22.3849 36.8765ZM20.0213 38.4637L19.6023 37.4899L19.5977 37.492L20.0213 38.4637ZM6.1502 39.0502H5.0902V40.1102H6.1502V39.0502ZM6.1502 34.0987V33.0387H5.0902V34.0987H6.1502ZM18.8826 33.3914L18.1331 32.6418L18.8826 33.3914ZM18.8826 29.8891L18.1141 30.6192L18.1329 30.6389L18.1525 30.6576L18.8826 29.8891ZM6.94382 26.9906L6.1879 27.7338L6.19426 27.7402L6.20072 27.7466L6.94382 26.9906ZM5.35657 24.6271L4.38293 25.0461L4.38487 25.0506L5.35657 24.6271ZM5.83001 21.7286C5.83001 20.8439 5.99812 20.0284 6.32828 19.271L4.38487 18.4239C3.93292 19.4608 3.71 20.566 3.71 21.7286H5.83001ZM6.32828 19.271C6.66836 18.4908 7.12356 17.8204 7.69334 17.2506L6.19429 15.7515C5.42989 16.5159 4.82693 17.4098 4.38487 18.4239L6.32828 19.271ZM7.69334 17.2506C8.27627 16.6677 8.95301 16.2074 9.73098 15.8683L8.88387 13.9249C7.86761 14.3679 6.96859 14.9773 6.19429 15.7515L7.69334 17.2506ZM9.73098 15.8683C10.4884 15.5381 11.3039 15.37 12.1886 15.37V13.25C11.0261 13.25 9.92076 13.4729 8.88387 13.9249L9.73098 15.8683ZM12.1886 15.37H23.5408V13.25H12.1886V15.37ZM22.4808 14.31V19.2615H24.6008V14.31H22.4808ZM23.5408 18.2015H12.1886V20.3215H23.5408V18.2015ZM12.1886 18.2015C11.7107 18.2015 11.2472 18.2898 10.8095 18.475L11.6355 20.4275C11.7958 20.3597 11.9765 20.3215 12.1886 20.3215V18.2015ZM10.8095 18.475C10.3844 18.6549 10.0057 18.9102 9.67933 19.2366L11.1784 20.7356C11.3121 20.6019 11.4624 20.5007 11.6355 20.4275L10.8095 18.475ZM9.67933 19.2366C9.35942 19.5565 9.11201 19.9311 8.93506 20.3495L10.8875 21.1755C10.9636 20.9957 11.0612 20.8528 11.1784 20.7356L9.67933 19.2366ZM8.93506 20.3495C8.74985 20.7872 8.66148 21.2507 8.66148 21.7286H10.7815C10.7815 21.5164 10.8197 21.3358 10.8875 21.1755L8.93506 20.3495ZM8.66148 21.7286C8.66148 22.2067 8.74985 22.6707 8.92962 23.112L10.8929 22.3121C10.8197 22.1322 10.7815 21.9406 10.7815 21.7286H8.66148ZM8.93506 23.125C9.11 23.5386 9.35203 23.9112 9.66035 24.2357L11.1974 22.7755C11.0686 22.64 10.9656 22.4835 10.8875 22.299L8.93506 23.125ZM9.69879 24.2741C10.0233 24.5825 10.3959 24.8245 10.8095 24.9994L11.6355 23.047C11.451 22.9689 11.2944 22.8659 11.1589 22.7371L9.69879 24.2741ZM10.8095 24.9994C11.2472 25.1846 11.7107 25.273 12.1886 25.273V23.153C11.9765 23.153 11.7958 23.1148 11.6355 23.047L10.8095 24.9994ZM12.1886 25.273H17.1401V23.153H12.1886V25.273ZM17.1401 25.273C18.0248 25.273 18.8403 25.4411 19.5977 25.7713L20.4449 23.8279C19.408 23.3759 18.3027 23.153 17.1401 23.153V25.273ZM19.6127 25.7777C20.3957 26.1047 21.0643 26.5555 21.629 27.1299L23.1408 25.6437C22.3713 24.8609 21.4642 24.2535 20.4299 23.8215L19.6127 25.7777ZM21.6418 27.1427C22.2162 27.7074 22.667 28.376 22.9941 29.159L24.9503 28.3419C24.5182 27.3076 23.9108 26.4004 23.128 25.6309L21.6418 27.1427ZM23.0005 29.174C23.3306 29.9314 23.4987 30.7469 23.4987 31.6316H25.6187C25.6187 30.469 25.3958 29.3637 24.9439 28.3269L23.0005 29.174ZM23.4987 31.6316C23.4987 32.5163 23.3306 33.3318 23.0005 34.0892L24.9439 34.9364C25.3958 33.8995 25.6187 32.7942 25.6187 31.6316H23.4987ZM22.9959 34.0998C22.6687 34.8731 22.216 35.5462 21.6354 36.1267L23.1344 37.6259C23.9111 36.8493 24.5164 35.9469 24.9484 34.9258L22.9959 34.0998ZM21.6354 36.1267C21.0678 36.6945 20.3936 37.1493 19.6023 37.4899L20.4403 39.4371C21.4663 38.9958 22.3678 38.3927 23.1344 37.6259L21.6354 36.1267ZM19.5977 37.492C18.8403 37.822 18.0248 37.9902 17.1401 37.9902V40.1102C18.3027 40.1102 19.408 39.8873 20.4449 39.4354L19.5977 37.492ZM17.1401 37.9902H6.1502V40.1102H17.1401V37.9902ZM7.2102 39.0502V34.0987H5.0902V39.0502H7.2102ZM6.1502 35.1587H17.1401V33.0387H6.1502V35.1587ZM17.1401 35.1587C17.6181 35.1587 18.0815 35.0704 18.5193 34.8852L17.6932 32.9327C17.5329 33.0006 17.3523 33.0387 17.1401 33.0387V35.1587ZM18.5193 34.8852C18.9376 34.7082 19.3123 34.4608 19.6322 34.1409L18.1331 32.6418C18.0159 32.759 17.873 32.8566 17.6932 32.9327L18.5193 34.8852ZM19.6322 34.1409C19.9585 33.8145 20.2139 33.4358 20.3937 33.0108L18.4413 32.1847C18.368 32.3578 18.2668 32.5081 18.1331 32.6418L19.6322 34.1409ZM20.3937 33.0108C20.5789 32.573 20.6672 32.1095 20.6672 31.6316H18.5472C18.5472 31.8438 18.5091 32.0244 18.4413 32.1847L20.3937 33.0108ZM20.6672 31.6316C20.6672 31.1537 20.5789 30.6902 20.3937 30.2524L18.4413 31.0785C18.5091 31.2388 18.5472 31.4194 18.5472 31.6316H20.6672ZM20.3937 30.2524C20.2118 29.8225 19.9508 29.4418 19.6127 29.1206L18.1525 30.6576C18.2745 30.7734 18.3701 30.9103 18.4413 31.0785L20.3937 30.2524ZM19.6511 29.159C19.3299 28.8209 18.9492 28.5599 18.5193 28.378L17.6932 30.3305C17.8614 30.4016 17.9983 30.4972 18.1141 30.6192L19.6511 29.159ZM18.5193 28.378C18.0815 28.1928 17.6181 28.1045 17.1401 28.1045V30.2245C17.3523 30.2245 17.5329 30.2626 17.6932 30.3305L18.5193 28.378ZM17.1401 28.1045H12.1886V30.2245H17.1401V28.1045ZM12.1886 28.1045C11.3039 28.1045 10.4884 27.9363 9.73098 27.6062L8.88387 29.5496C9.92076 30.0016 11.0261 30.2245 12.1886 30.2245V28.1045ZM9.73098 27.6062C8.94923 27.2654 8.27048 26.8084 7.68691 26.2348L6.20072 27.7466C6.97438 28.5071 7.87135 29.1082 8.88387 29.5496L9.73098 27.6062ZM7.69974 26.2475C7.1261 25.664 6.66907 24.9853 6.32828 24.2035L4.38487 25.0506C4.82622 26.0631 5.42735 26.9601 6.1879 27.7338L7.69974 26.2475ZM6.33026 24.208C5.99816 23.4364 5.83001 22.6133 5.83001 21.7286H3.71C3.71 22.8912 3.93292 24.0004 4.38293 25.0461L6.33026 24.208Z" fill="black"/>
<path d="M47.9493 26.6801C47.9493 27.8188 47.7994 28.9172 47.5005 29.9754C47.2129 31.022 46.7988 32.0054 46.2582 32.9255C45.718 33.8342 45.0738 34.6681 44.3262 35.4271C43.5785 36.1748 42.7447 36.8189 41.8246 37.3595C40.9045 37.9001 39.9152 38.3199 38.8569 38.6188C37.8104 38.9064 36.7178 39.0502 35.579 39.0502H28.1259V14.31H35.579C36.7178 14.31 37.8104 14.4595 38.8569 14.7586C39.9152 15.0461 40.9045 15.4602 41.8246 16.0007C42.7447 16.5413 43.5785 17.1912 44.3262 17.9503C45.0738 18.6979 45.718 19.5318 46.2582 20.4519C46.7988 21.3606 47.2129 22.344 47.5005 23.4021C47.7994 24.4488 47.9493 25.5414 47.9493 26.6801ZM42.9976 26.6801C42.9976 25.6565 42.8022 24.6961 42.4111 23.7989C42.0316 22.9018 41.5023 22.1197 40.8239 21.4526C40.1568 20.7739 39.3689 20.2391 38.4601 19.8481C37.563 19.457 36.6027 19.2615 35.579 19.2615H33.1119V34.0987H35.579C36.6027 34.0987 37.563 33.9089 38.4601 33.5294C39.3689 33.1383 40.1568 32.6092 40.8239 31.9421C41.5023 31.2635 42.0316 30.4757 42.4111 29.5786C42.8022 28.6699 42.9976 27.7038 42.9976 26.6801Z" fill="url(#paint1_linear_12_16)"/>
<path d="M47.5005 29.9753L46.4804 29.6871L46.4794 29.6908L46.4783 29.6946L47.5005 29.9753ZM46.2582 32.9255L47.1695 33.4675L47.1709 33.465L47.1723 33.4625L46.2582 32.9255ZM44.3262 35.4271L45.0756 36.1766L45.0784 36.1737L45.0812 36.1709L44.3262 35.4271ZM38.8569 38.6188L39.1378 39.641L39.1417 39.6399L39.1452 39.6389L38.8569 38.6188ZM28.1259 39.0502H27.0659V40.1102H28.1259V39.0502ZM28.1259 14.31V13.25H27.0659V14.31H28.1259ZM38.8569 14.7586L38.5658 15.7778L38.5725 15.7797L38.5792 15.7815L38.8569 14.7586ZM41.8246 16.0007L42.3613 15.0868L41.8246 16.0007ZM44.3262 17.9503L43.5707 18.6941L43.5736 18.697L43.5764 18.6998L44.3262 17.9503ZM46.2582 20.4519L45.3445 20.9888L45.3459 20.9914L45.3473 20.9939L46.2582 20.4519ZM47.5005 23.4021L46.4776 23.6801L46.4794 23.6867L46.4815 23.6933L47.5005 23.4021ZM42.4111 23.7989L41.4348 24.212L41.437 24.2172L41.4394 24.2225L42.4111 23.7989ZM40.8239 21.4526L40.0678 22.1957L40.0742 22.2021L40.0809 22.2085L40.8239 21.4526ZM38.4601 19.8481L38.0365 20.8198L38.0411 20.8217L38.4601 19.8481ZM33.1119 19.2615V18.2015H32.0519V19.2615H33.1119ZM33.1119 34.0987H32.0519V35.1587H33.1119V34.0987ZM38.4601 33.5294L38.8732 34.5056L38.8764 34.5043L38.8792 34.503L38.4601 33.5294ZM40.8239 31.9421L40.0742 31.1926L40.8239 31.9421ZM42.4111 29.5786L41.4373 29.1595L41.4363 29.1625L41.4348 29.1655L42.4111 29.5786ZM46.8893 26.6801C46.8893 27.7248 46.7522 28.726 46.4804 29.6871L48.5206 30.2636C48.8471 29.1084 49.0093 27.9128 49.0093 26.6801H46.8893ZM46.4783 29.6946C46.2151 30.653 45.837 31.5501 45.3445 32.3886L47.1723 33.4625C47.7609 32.4607 48.2111 31.391 48.5227 30.2561L46.4783 29.6946ZM45.3473 32.3836C44.8509 33.2183 44.259 33.9846 43.5707 34.6834L45.0812 36.1709C45.8883 35.3515 46.5847 34.45 47.1695 33.4675L45.3473 32.3836ZM43.5764 34.6777C42.8931 35.3611 42.1309 35.9501 41.2875 36.4454L42.3613 38.2732C43.3584 37.6878 44.2636 36.9885 45.0756 36.1766L43.5764 34.6777ZM41.2875 36.4454C40.4476 36.9391 39.5424 37.3238 38.5686 37.5987L39.1452 39.6389C40.2879 39.3159 41.361 38.8612 42.3613 38.2732L41.2875 36.4454ZM38.5764 37.5966C37.6256 37.8581 36.6274 37.9902 35.579 37.9902V40.1102C36.8079 40.1102 37.9951 39.9548 39.1378 39.641L38.5764 37.5966ZM35.579 37.9902H28.1259V40.1102H35.579V37.9902ZM29.1859 39.0502V14.31H27.0659V39.0502H29.1859ZM28.1259 15.37H35.579V13.25H28.1259V15.37ZM35.579 15.37C36.6239 15.37 37.6181 15.507 38.5658 15.7778L39.1481 13.7393C38.0026 13.412 36.8115 13.25 35.579 13.25V15.37ZM38.5792 15.7815C39.5491 16.045 40.4508 16.4231 41.2875 16.9147L42.3613 15.0868C41.3578 14.4973 40.2816 14.0472 39.135 13.7357L38.5792 15.7815ZM41.2875 16.9147C42.1277 17.4084 42.8885 18.0011 43.5707 18.6941L45.0812 17.2065C44.2686 16.3813 43.3612 15.6743 42.3613 15.0868L41.2875 16.9147ZM43.5764 18.6998C44.2601 19.3832 44.8491 20.1455 45.3445 20.9888L47.1723 19.915C46.5865 18.918 45.8876 18.0126 45.0756 17.2008L43.5764 18.6998ZM45.3473 20.9939C45.837 21.817 46.2144 22.7111 46.4776 23.6801L48.5234 23.1241C48.2118 21.9768 47.7609 20.9041 47.1695 19.9099L45.3473 20.9939ZM46.4815 23.6933C46.7522 24.641 46.8893 25.6354 46.8893 26.6801H49.0093C49.0093 25.4475 48.8471 24.2565 48.5199 23.1109L46.4815 23.6933ZM44.0576 26.6801C44.0576 25.5175 43.8347 24.4122 43.3828 23.3754L41.4394 24.2225C41.7695 24.9799 41.9376 25.7954 41.9376 26.6801H44.0576ZM43.3874 23.3859C42.9545 22.3633 42.3475 21.4639 41.567 20.6966L40.0809 22.2085C40.6575 22.7754 41.1084 23.4402 41.4348 24.212L43.3874 23.3859ZM41.5797 20.7095C40.8126 19.9291 39.9088 19.3176 38.8792 18.8744L38.0411 20.8217C38.8287 21.1607 39.5011 21.6189 40.0678 22.1957L41.5797 20.7095ZM38.8838 18.8764C37.8467 18.4244 36.7415 18.2015 35.579 18.2015V20.3215C36.4638 20.3215 37.2793 20.4896 38.0365 20.8198L38.8838 18.8764ZM35.579 18.2015H33.1119V20.3215H35.579V18.2015ZM32.0519 19.2615V34.0987H34.1719V19.2615H32.0519ZM33.1119 35.1587H35.579V33.0387H33.1119V35.1587ZM35.579 35.1587C36.7373 35.1587 37.839 34.9433 38.8732 34.5056L38.0471 32.5532C37.2874 32.8746 36.468 33.0387 35.579 33.0387V35.1587ZM38.8792 34.503C39.9053 34.0615 40.8066 33.4583 41.5734 32.6917L40.0742 31.1926C39.5067 31.7602 38.8325 32.2152 38.0411 32.5557L38.8792 34.503ZM41.5734 32.6917C42.35 31.9151 42.9552 31.0125 43.3874 29.9916L41.4348 29.1655C41.1077 29.9389 40.655 30.612 40.0742 31.1926L41.5734 32.6917ZM43.3845 29.9976C43.8347 28.952 44.0576 27.8427 44.0576 26.6801H41.9376C41.9376 27.5648 41.7695 28.3879 41.4373 29.1595L43.3845 29.9976Z" fill="black"/>
</g>
<defs>
<linearGradient id="paint0_linear_12_16" x1="3.92462" y1="17.0559" x2="23.0919" y2="39.4212" gradientUnits="userSpaceOnUse">
<stop stop-color="#FFF1CE"/>
<stop offset="0.486851" stop-color="#FFC759"/>
<stop offset="1" stop-color="#FFF9D7"/>
</linearGradient>
<linearGradient id="paint1_linear_12_16" x1="25.8313" y1="17.0559" x2="44.7802" y2="40.5929" gradientUnits="userSpaceOnUse">
<stop stop-color="#FFF1CE"/>
<stop offset="0.486851" stop-color="#FFC759"/>
<stop offset="1" stop-color="#FFF9D7"/>
</linearGradient>
<clipPath id="clip0_12_16">
<rect width="53" height="53" fill="white"/>
</clipPath>
</defs>
</svg>
