<svg width="100" height="100" viewBox="0 0 100 100" fill="none" xmlns="http://www.w3.org/2000/svg">
<g clip-path="url(#clip0_3:26)">
<path d="M47.9192 1.41412L1.41421 47.9191C0.633165 48.7002 0.633165 49.9665 1.41421 50.7475L49.2523 98.5857C50.0334 99.3667 51.2997 99.3667 52.0808 98.5857L98.5858 52.0807C99.3668 51.2996 99.3668 50.0333 98.5858 49.2522L50.7476 1.41412C49.9666 0.63307 48.7003 0.63307 47.9192 1.41412Z" fill="#529671"/>
<path d="M9.00002 40.9974C9.00002 39.0659 9.36895 37.2539 10.1067 35.5612C10.8446 33.8685 11.8429 32.3928 13.1015 31.1341C14.3819 29.8537 15.8685 28.8446 17.5612 28.1067C19.2539 27.3689 21.0659 27 22.9974 27H44.4167V36.3424H22.9974C22.3463 36.3424 21.7387 36.4618 21.1745 36.7005C20.6102 36.9392 20.1111 37.2756 19.6771 37.7096C19.2647 38.1219 18.9392 38.6102 18.7005 39.1745C18.4618 39.7387 18.3424 40.3463 18.3424 40.9974C18.3424 41.6484 18.4618 42.2669 18.7005 42.8529C18.9392 43.4171 19.2647 43.9162 19.6771 44.3503C20.1111 44.7625 20.6102 45.0881 21.1745 45.3268C21.7387 45.5655 22.3463 45.6849 22.9974 45.6849H32.3398C34.2713 45.6849 36.0833 46.0538 37.776 46.7917C39.4905 47.5078 40.977 48.5061 42.2357 49.7865C43.5161 51.0451 44.5143 52.5317 45.2305 54.2461C45.9683 55.9388 46.3372 57.7509 46.3372 59.6823C46.3372 61.6137 45.9683 63.4257 45.2305 65.1185C44.5143 66.811 43.5161 68.2977 42.2357 69.5783C40.977 70.837 39.4905 71.835 37.776 72.573C36.0833 73.311 34.2713 73.6797 32.3398 73.6797H11.6041V64.3372H32.3398C32.9909 64.3372 33.5985 64.2179 34.1627 63.9791C34.727 63.7404 35.2153 63.4149 35.6276 63.0026C36.0616 62.5685 36.398 62.0694 36.6367 61.5052C36.8754 60.9409 36.9948 60.3333 36.9948 59.6823C36.9948 59.0312 36.8754 58.4236 36.6367 57.8593C36.398 57.2951 36.0616 56.8069 35.6276 56.3945C35.2153 55.9605 34.727 55.6241 34.1627 55.3854C33.5985 55.1467 32.9909 55.0273 32.3398 55.0273H22.9974C21.0659 55.0273 19.2539 54.6584 17.5612 53.9205C15.8685 53.1827 14.3819 52.1845 13.1015 50.9257C11.8429 49.6454 10.8446 48.1589 10.1067 46.4661C9.36895 44.7517 9.00002 42.9288 9.00002 40.9974Z" fill="url(#paint0_linear_3:26)"/>
<path d="M10.1067 35.5612L8.27335 34.762L10.1067 35.5612ZM13.1015 31.1341L11.6873 29.7199L13.1015 31.1341ZM44.4167 27H46.4167V25H44.4167V27ZM44.4167 36.3424V38.3424H46.4167V36.3424H44.4167ZM18.7005 42.8529L16.8483 43.6075L16.8533 43.6198L16.8586 43.6321L18.7005 42.8529ZM19.6771 44.3503L18.2271 45.7277L18.2624 45.7649L18.2996 45.8003L19.6771 44.3503ZM37.776 46.7917L36.9769 48.6251L36.9909 48.6312L37.0051 48.6371L37.776 46.7917ZM42.2357 49.7865L40.8094 51.1885L40.8214 51.2007L40.8336 51.2127L42.2357 49.7865ZM45.2305 54.2461L43.385 55.0169L43.3909 55.0311L43.3971 55.0453L45.2305 54.2461ZM45.2305 65.1185L43.3971 64.3193L43.3927 64.3292L43.3885 64.3392L45.2305 65.1185ZM42.2357 69.5783L43.6499 70.9923L42.2357 69.5783ZM37.776 72.573L36.9854 70.7357L36.9769 70.7397L37.776 72.573ZM11.6041 73.6797H9.60415V75.6797H11.6041V73.6797ZM11.6041 64.3372V62.3372H9.60415V64.3372H11.6041ZM35.6276 63.0026L34.2134 61.5884L35.6276 63.0026ZM35.6276 56.3945L34.1776 57.772L34.2129 57.8092L34.2501 57.8445L35.6276 56.3945ZM13.1015 50.9257L11.6753 52.3279L11.6873 52.34L11.6995 52.352L13.1015 50.9257ZM10.1067 46.4661L8.26968 47.2568L8.27335 47.2653L10.1067 46.4661ZM11 40.9974C11 39.3281 11.3172 37.7894 11.9401 36.3603L8.27335 34.762C7.42061 36.7184 7 38.8039 7 40.9974H11ZM11.9401 36.3603C12.5818 34.8883 13.4407 33.6234 14.5157 32.5483L11.6873 29.7199C10.2451 31.1621 9.10741 32.8486 8.27335 34.762L11.9401 36.3603ZM14.5157 32.5483C15.6156 31.4485 16.8925 30.58 18.3603 29.9401L16.762 26.2733C14.8445 27.1092 13.1483 28.259 11.6873 29.7199L14.5157 32.5483ZM18.3603 29.9401C19.7894 29.3172 21.3281 29 22.9974 29V25C20.8039 25 18.7184 25.4206 16.762 26.2733L18.3603 29.9401ZM22.9974 29H44.4167V25H22.9974V29ZM42.4167 27V36.3424H46.4167V27H42.4167ZM44.4167 34.3424H22.9974V38.3424H44.4167V34.3424ZM22.9974 34.3424C22.0957 34.3424 21.2212 34.5091 20.3952 34.8585L21.9537 38.5425C22.2562 38.4145 22.5971 38.3424 22.9974 38.3424V34.3424ZM20.3952 34.8585C19.5933 35.1979 18.8787 35.6796 18.2629 36.2954L21.0913 39.1238C21.3435 38.8716 21.6272 38.6806 21.9537 38.5425L20.3952 34.8585ZM18.2629 36.2954C17.6593 36.899 17.1925 37.6059 16.8586 38.3952L20.5425 39.9537C20.6859 39.6145 20.8702 39.3449 21.0913 39.1238L18.2629 36.2954ZM16.8586 38.3952C16.5091 39.2212 16.3424 40.0956 16.3424 40.9974H20.3424C20.3424 40.5971 20.4145 40.2562 20.5425 39.9537L16.8586 38.3952ZM16.3424 40.9974C16.3424 41.8995 16.5091 42.7749 16.8483 43.6075L20.5527 42.0983C20.4145 41.7589 20.3424 41.3973 20.3424 40.9974H16.3424ZM16.8586 43.6321C17.1887 44.4124 17.6453 45.1154 18.2271 45.7277L21.1271 42.9727C20.8841 42.7171 20.6897 42.4217 20.5425 42.0735L16.8586 43.6321ZM18.2996 45.8003C18.9119 46.382 19.6149 46.8386 20.3952 47.1687L21.9537 43.4849C21.6056 43.3375 21.3103 43.1431 21.0546 42.9003L18.2996 45.8003ZM20.3952 47.1687C21.2212 47.5182 22.0957 47.6849 22.9974 47.6849V43.6849C22.5971 43.6849 22.2562 43.6129 21.9537 43.4849L20.3952 47.1687ZM22.9974 47.6849H32.3398V43.6849H22.9974V47.6849ZM32.3398 47.6849C34.0091 47.6849 35.5478 48.0021 36.9769 48.6251L38.5752 44.9583C36.6188 44.1055 34.5333 43.6849 32.3398 43.6849V47.6849ZM37.0051 48.6371C38.4825 49.2542 39.744 50.1047 40.8094 51.1885L43.6619 48.3843C42.2099 46.9074 40.4984 45.7613 38.5469 44.9462L37.0051 48.6371ZM40.8336 51.2127C41.9173 52.2781 42.7679 53.5396 43.385 55.0169L47.076 53.4752C46.2607 51.5237 45.1147 49.8121 43.6377 48.3602L40.8336 51.2127ZM43.3971 55.0453C44.02 56.4743 44.3372 58.0129 44.3372 59.6823H48.3372C48.3372 57.4887 47.9166 55.4033 47.0639 53.4469L43.3971 55.0453ZM44.3372 59.6823C44.3372 61.3516 44.02 62.8903 43.3971 64.3193L47.0639 65.9177C47.9166 63.9613 48.3372 61.8758 48.3372 59.6823H44.3372ZM43.3885 64.3392C42.7712 65.7983 41.917 67.0683 40.8215 68.1637L43.6499 70.9923C45.1152 69.527 46.2574 67.8243 47.0724 65.8977L43.3885 64.3392ZM40.8215 68.1637C39.7506 69.235 38.4785 70.093 36.9854 70.7357L38.5667 74.4097C40.5024 73.577 42.2034 72.439 43.6499 70.9923L40.8215 68.1637ZM36.9769 70.7397C35.5478 71.3623 34.0091 71.6797 32.3398 71.6797V75.6797C34.5333 75.6797 36.6188 75.259 38.5752 74.4063L36.9769 70.7397ZM32.3398 71.6797H11.6041V75.6797H32.3398V71.6797ZM13.6041 73.6797V64.3372H9.60415V73.6797H13.6041ZM11.6041 66.3372H32.3398V62.3372H11.6041V66.3372ZM32.3398 66.3372C33.2416 66.3372 34.116 66.1705 34.942 65.8211L33.3835 62.1372C33.081 62.2652 32.7402 62.3372 32.3398 62.3372V66.3372ZM34.942 65.8211C35.7313 65.4872 36.4382 65.0204 37.0418 64.4168L34.2134 61.5884C33.9923 61.8094 33.7227 61.9937 33.3835 62.1372L34.942 65.8211ZM37.0418 64.4168C37.6576 63.801 38.1394 63.0864 38.4787 62.2845L34.7948 60.7259C34.6566 61.0525 34.4656 61.3361 34.2134 61.5884L37.0418 64.4168ZM38.4787 62.2845C38.8281 61.4585 38.9948 60.584 38.9948 59.6823H34.9948C34.9948 60.0826 34.9227 60.4235 34.7948 60.7259L38.4787 62.2845ZM38.9948 59.6823C38.9948 58.7805 38.8281 57.9061 38.4787 57.0801L34.7948 58.6387C34.9227 58.9411 34.9948 59.2819 34.9948 59.6823H38.9948ZM38.4787 57.0801C38.1354 56.2688 37.6431 55.5506 37.0051 54.9445L34.2501 57.8445C34.4801 58.0631 34.6606 58.3214 34.7948 58.6387L38.4787 57.0801ZM37.0776 55.017C36.4715 54.379 35.7533 53.8867 34.942 53.5435L33.3835 57.2273C33.7007 57.3615 33.9591 57.5419 34.1776 57.772L37.0776 55.017ZM34.942 53.5435C34.116 53.194 33.2416 53.0273 32.3398 53.0273V57.0273C32.7402 57.0273 33.081 57.0993 33.3835 57.2273L34.942 53.5435ZM32.3398 53.0273H22.9974V57.0273H32.3398V53.0273ZM22.9974 53.0273C21.3281 53.0273 19.7894 52.7101 18.3603 52.0871L16.762 55.7539C18.7184 56.6067 20.8039 57.0273 22.9974 57.0273V53.0273ZM18.3603 52.0871C16.8853 51.4442 15.6047 50.5819 14.5036 49.4995L11.6995 52.352C13.1592 53.787 14.8516 54.9212 16.762 55.7539L18.3603 52.0871ZM14.5278 49.5237C13.4455 48.4227 12.5831 47.142 11.9401 45.6669L8.27335 47.2653C9.10608 49.1757 10.2403 50.8681 11.6753 52.3279L14.5278 49.5237ZM11.9439 45.6755C11.3173 44.2195 11 42.6666 11 40.9974H7C7 43.191 7.42061 45.2839 8.26968 47.2568L11.9439 45.6755Z" fill="black"/>
<path d="M90.4703 50.3398C90.4703 52.4883 90.1876 54.5607 89.6236 56.5573C89.081 58.5321 88.2996 60.3875 87.2796 62.1237C86.2603 63.8381 85.045 65.4115 83.6343 66.8437C82.2236 68.2543 80.6503 69.4697 78.9143 70.4897C77.1783 71.5097 75.3116 72.3017 73.315 72.8657C71.3403 73.4083 69.279 73.6797 67.1302 73.6797H53.0677V27H67.1302C69.279 27 71.3403 27.2821 73.315 27.8463C75.3116 28.3889 77.1783 29.1701 78.9143 30.1901C80.6503 31.2101 82.2236 32.4362 83.6343 33.8685C85.045 35.2791 86.2603 36.8524 87.2796 38.5885C88.2996 40.3029 89.081 42.1584 89.6236 44.1549C90.1876 46.1297 90.4703 48.1914 90.4703 50.3398ZM81.1276 50.3398C81.1276 48.4084 80.759 46.5963 80.021 44.9036C79.305 43.2109 78.3063 41.7352 77.0263 40.4765C75.7676 39.1961 74.281 38.1871 72.5663 37.4492C70.8736 36.7113 69.0616 36.3424 67.1302 36.3424H62.4753V64.3372H67.1302C69.0616 64.3372 70.8736 63.9791 72.5663 63.263C74.281 62.5251 75.7676 61.5269 77.0263 60.2682C78.3063 58.9878 79.305 57.5013 80.021 55.8086C80.759 54.0941 81.1276 52.2713 81.1276 50.3398Z" fill="url(#paint1_linear_3:26)"/>
<path d="M89.6236 56.5573L87.699 56.0133L87.697 56.0204L87.695 56.0275L89.6236 56.5573ZM87.2796 62.1237L88.999 63.1463L89.0016 63.1415L89.0043 63.1368L87.2796 62.1237ZM83.6343 66.8437L85.0483 68.2577L85.0536 68.2523L85.059 68.247L83.6343 66.8437ZM73.315 72.8657L73.845 74.7943L73.8523 74.7923L73.859 74.7903L73.315 72.8657ZM53.0677 73.6797H51.0677V75.6797H53.0677V73.6797ZM53.0677 27V25H51.0677V27H53.0677ZM73.315 27.8463L72.7656 29.7694L72.7783 29.7729L72.791 29.7763L73.315 27.8463ZM78.9143 30.1901L79.927 28.4657L78.9143 30.1901ZM83.6343 33.8685L82.209 35.2719L82.2143 35.2773L82.2196 35.2827L83.6343 33.8685ZM87.2796 38.5885L85.5556 39.6016L85.5583 39.6064L85.561 39.6111L87.2796 38.5885ZM89.6236 44.1549L87.6936 44.6794L87.697 44.6919L87.701 44.7044L89.6236 44.1549ZM80.021 44.9036L78.179 45.6829L78.183 45.6929L78.1876 45.7028L80.021 44.9036ZM77.0263 40.4765L75.5996 41.8786L75.6116 41.8908L75.6243 41.9028L77.0263 40.4765ZM72.5663 37.4492L71.767 39.2826L71.7756 39.2863L72.5663 37.4492ZM62.4753 36.3424V34.3424H60.4753V36.3424H62.4753ZM62.4753 64.3372H60.4753V66.3372H62.4753V64.3372ZM72.5663 63.263L73.3456 65.1049L73.3516 65.1025L73.357 65.1001L72.5663 63.263ZM77.0263 60.2682L75.6116 58.854L77.0263 60.2682ZM80.021 55.8086L78.1836 55.0179L78.1816 55.0236L78.179 55.0293L80.021 55.8086ZM88.4703 50.3398C88.4703 52.3109 88.2116 54.2 87.699 56.0133L91.5483 57.1012C92.1643 54.9215 92.4703 52.6656 92.4703 50.3398H88.4703ZM87.695 56.0275C87.1983 57.8359 86.485 59.5285 85.5556 61.1106L89.0043 63.1368C90.115 61.2467 90.9643 59.2283 91.5523 57.0871L87.695 56.0275ZM85.561 61.1011C84.6243 62.6761 83.5076 64.1218 82.209 65.4403L85.059 68.247C86.5816 66.701 87.8956 65.0001 88.999 63.1463L85.561 61.1011ZM82.2196 65.4295C80.9303 66.719 79.4923 67.8303 77.901 68.765L79.927 72.2137C81.8083 71.109 83.5163 69.7897 85.0483 68.2577L82.2196 65.4295ZM77.901 68.765C76.3163 69.6963 74.6083 70.4223 72.771 70.941L73.859 74.7903C76.015 74.181 78.0396 73.323 79.927 72.2137L77.901 68.765ZM72.7856 70.937C70.9916 71.4303 69.1083 71.6797 67.1302 71.6797V75.6797C69.449 75.6797 71.689 75.3863 73.845 74.7943L72.7856 70.937ZM67.1302 71.6797H53.0677V75.6797H67.1302V71.6797ZM55.0677 73.6797V27H51.0677V73.6797H55.0677ZM53.0677 29H67.1302V25H53.0677V29ZM67.1302 29C69.1016 29 70.9776 29.2585 72.7656 29.7694L73.8643 25.9233C71.703 25.3057 69.4556 25 67.1302 25V29ZM72.791 29.7763C74.621 30.2736 76.3223 30.9869 77.901 31.9145L79.927 28.4657C78.0336 27.3533 76.003 26.5041 73.8396 25.9163L72.791 29.7763ZM77.901 31.9145C79.4863 32.8461 80.9216 33.9643 82.209 35.2719L85.059 32.4651C83.5256 30.9081 81.8136 29.5741 79.927 28.4657L77.901 31.9145ZM82.2196 35.2827C83.5096 36.5721 84.621 38.0105 85.5556 39.6016L89.0043 37.5754C87.899 35.6944 86.5803 33.986 85.0483 32.4543L82.2196 35.2827ZM85.561 39.6111C86.485 41.1641 87.197 42.8512 87.6936 44.6794L91.5536 43.6305C90.9656 41.4656 90.115 39.4417 88.999 37.5659L85.561 39.6111ZM87.701 44.7044C88.2116 46.4925 88.4703 48.3687 88.4703 50.3398H92.4703C92.4703 48.0141 92.1643 45.7671 91.547 43.6055L87.701 44.7044ZM83.1276 50.3398C83.1276 48.1463 82.707 46.0608 81.8543 44.1045L78.1876 45.7028C78.8103 47.1319 79.1276 48.6705 79.1276 50.3398H83.1276ZM81.863 44.1243C81.0463 42.195 79.901 40.498 78.4283 39.0503L75.6243 41.9028C76.7123 42.9725 77.563 44.2268 78.179 45.6829L81.863 44.1243ZM78.4523 39.0745C77.005 37.602 75.2996 36.4483 73.357 35.6121L71.7756 39.2863C73.2616 39.9258 74.5303 40.7903 75.5996 41.8786L78.4523 39.0745ZM73.3656 35.6158C71.409 34.763 69.3236 34.3424 67.1302 34.3424V38.3424C68.7996 38.3424 70.3383 38.6597 71.767 39.2826L73.3656 35.6158ZM67.1302 34.3424H62.4753V38.3424H67.1302V34.3424ZM60.4753 36.3424V64.3372H64.4753V36.3424H60.4753ZM62.4753 66.3372H67.1302V62.3372H62.4753V66.3372ZM67.1302 66.3372C69.3156 66.3372 71.3943 65.9307 73.3456 65.1049L71.787 61.4211C70.3536 62.0276 68.8076 62.3372 67.1302 62.3372V66.3372ZM73.357 65.1001C75.293 64.267 76.9936 63.1289 78.4403 61.6824L75.6116 58.854C74.541 59.9249 73.269 60.7833 71.7756 61.4259L73.357 65.1001ZM78.4403 61.6824C79.9056 60.2171 81.0476 58.5141 81.863 56.5879L78.179 55.0293C77.5616 56.4885 76.7076 57.7585 75.6116 58.854L78.4403 61.6824ZM81.8576 56.5992C82.707 54.6263 83.1276 52.5335 83.1276 50.3398H79.1276C79.1276 52.0091 78.8103 53.562 78.1836 55.0179L81.8576 56.5992Z" fill="black"/>
</g>
<defs>
<linearGradient id="paint0_linear_3:26" x1="7.40495" y1="32.1809" x2="43.5697" y2="74.3797" gradientUnits="userSpaceOnUse">
<stop stop-color="#FFF1CE"/>
<stop offset="0.486851" stop-color="#FFC759"/>
<stop offset="1" stop-color="#FFF9D7"/>
</linearGradient>
<linearGradient id="paint1_linear_3:26" x1="48.7383" y1="32.1809" x2="84.491" y2="76.5903" gradientUnits="userSpaceOnUse">
<stop stop-color="#FFF1CE"/>
<stop offset="0.486851" stop-color="#FFC759"/>
<stop offset="1" stop-color="#FFF9D7"/>
</linearGradient>
<clipPath id="clip0_3:26">
<rect width="100" height="100" fill="white"/>
</clipPath>
</defs>
</svg>
